<svg xmlns="http://www.w3.org/2000/svg" xmlns:xlink="http://www.w3.org/1999/xlink" width="500" zoomAndPan="magnify" viewBox="0 0 375 374.999991" height="500" preserveAspectRatio="xMidYMid meet" version="1.0"><defs><clipPath id="9bfa735b32"><path d="M 58 39.375 L 340 39.375 L 340 293 L 58 293 Z M 58 39.375 " clip-rule="nonzero"/></clipPath><clipPath id="8cc97b8efa"><path d="M 277 310 L 336 310 L 336 335.625 L 277 335.625 Z M 277 310 " clip-rule="nonzero"/></clipPath></defs><g clip-path="url(#9bfa735b32)"><path fill="#bec0e9" d="M 100.535156 77.046875 C 119.671875 57.921875 142.890625 45.355469 167.386719 39.375 C 165.953125 40.683594 164.535156 42.023438 163.148438 43.410156 C 115.457031 91.101562 115.457031 168.40625 163.148438 216.097656 C 210.828125 263.773438 288.144531 263.773438 335.835938 216.097656 C 337.222656 214.710938 338.5625 213.289062 339.871094 211.859375 C 333.878906 236.351562 321.324219 259.570312 302.183594 278.710938 C 297.1875 283.707031 291.910156 288.246094 286.410156 292.347656 C 282.519531 290.371094 278.160156 289.242188 273.554688 289.207031 C 271.878906 289.195312 270.222656 289.332031 268.613281 289.597656 C 261.292969 277.714844 248.210938 269.746094 233.21875 269.644531 C 225.886719 269.589844 218.976562 271.421875 212.964844 274.6875 C 202.050781 261.4375 185.574219 252.941406 167.074219 252.796875 C 148.582031 252.664062 132.003906 260.902344 120.890625 273.960938 C 113.859375 268.035156 105.003906 265.296875 95.894531 267.105469 C 94.285156 267.429688 92.730469 267.878906 91.222656 268.449219 C 45.050781 212.441406 48.148438 129.433594 100.535156 77.046875 Z M 100.535156 77.046875 " fill-opacity="1" fill-rule="evenodd"/></g><path fill="#bec0e9" d="M 240.765625 175.59375 C 238.5625 183.945312 232.269531 190.226562 223.917969 192.441406 L 220.675781 193.300781 L 223.917969 194.160156 C 232.269531 196.363281 238.5625 202.660156 240.765625 211.007812 L 241.628906 214.25 L 242.488281 211.007812 C 244.691406 202.660156 250.984375 196.363281 259.335938 194.160156 L 262.578125 193.300781 L 259.335938 192.441406 C 250.984375 190.226562 244.691406 183.945312 242.488281 175.59375 L 241.628906 172.351562 Z M 240.765625 175.59375 " fill-opacity="1" fill-rule="evenodd"/><path fill="#bec0e9" d="M 187.96875 87.253906 C 186.691406 92.050781 183.082031 95.671875 178.285156 96.9375 L 176.417969 97.4375 L 178.285156 97.929688 C 183.082031 99.195312 186.691406 102.816406 187.96875 107.613281 L 188.457031 109.480469 L 188.949219 107.613281 C 190.226562 102.816406 193.835938 99.195312 198.644531 97.929688 L 200.5 97.4375 L 198.644531 96.9375 C 193.835938 95.671875 190.226562 92.050781 188.949219 87.253906 L 188.457031 85.386719 Z M 187.96875 87.253906 " fill-opacity="1" fill-rule="evenodd"/><path fill="#bec0e9" d="M 250.492188 127.644531 C 250.492188 127.949219 250.460938 128.25 250.402344 128.546875 C 250.34375 128.847656 250.257812 129.136719 250.140625 129.417969 C 250.023438 129.699219 249.882812 129.964844 249.710938 130.21875 C 249.542969 130.46875 249.351562 130.703125 249.136719 130.917969 C 248.921875 131.132812 248.6875 131.324219 248.433594 131.492188 C 248.183594 131.664062 247.917969 131.804688 247.636719 131.921875 C 247.355469 132.039062 247.066406 132.125 246.765625 132.183594 C 246.46875 132.242188 246.167969 132.273438 245.863281 132.273438 C 245.558594 132.273438 245.257812 132.242188 244.960938 132.183594 C 244.664062 132.125 244.375 132.039062 244.09375 131.921875 C 243.8125 131.804688 243.546875 131.664062 243.292969 131.492188 C 243.039062 131.324219 242.804688 131.132812 242.589844 130.917969 C 242.375 130.703125 242.183594 130.46875 242.015625 130.21875 C 241.847656 129.964844 241.703125 129.699219 241.589844 129.417969 C 241.472656 129.136719 241.382812 128.847656 241.324219 128.546875 C 241.265625 128.25 241.234375 127.949219 241.234375 127.644531 C 241.234375 127.339844 241.265625 127.039062 241.324219 126.742188 C 241.382812 126.445312 241.472656 126.15625 241.589844 125.875 C 241.703125 125.59375 241.847656 125.328125 242.015625 125.074219 C 242.183594 124.820312 242.375 124.585938 242.589844 124.371094 C 242.804688 124.15625 243.039062 123.964844 243.292969 123.796875 C 243.546875 123.628906 243.8125 123.484375 244.09375 123.371094 C 244.375 123.253906 244.664062 123.164062 244.960938 123.105469 C 245.257812 123.046875 245.558594 123.015625 245.863281 123.015625 C 246.167969 123.015625 246.46875 123.046875 246.765625 123.105469 C 247.066406 123.164062 247.355469 123.253906 247.636719 123.371094 C 247.917969 123.484375 248.183594 123.628906 248.433594 123.796875 C 248.6875 123.964844 248.921875 124.15625 249.136719 124.371094 C 249.351562 124.585938 249.542969 124.820312 249.710938 125.074219 C 249.882812 125.328125 250.023438 125.59375 250.140625 125.875 C 250.257812 126.15625 250.34375 126.445312 250.402344 126.742188 C 250.460938 127.039062 250.492188 127.339844 250.492188 127.644531 Z M 250.492188 127.644531 " fill-opacity="1" fill-rule="nonzero"/><path fill="#bec0e9" d="M 175.367188 162.691406 C 175.367188 162.996094 175.339844 163.296875 175.277344 163.59375 C 175.21875 163.894531 175.132812 164.183594 175.015625 164.464844 C 174.898438 164.746094 174.757812 165.011719 174.585938 165.265625 C 174.417969 165.515625 174.226562 165.75 174.011719 165.964844 C 173.796875 166.179688 173.5625 166.371094 173.3125 166.539062 C 173.058594 166.710938 172.792969 166.851562 172.511719 166.96875 C 172.230469 167.085938 171.941406 167.171875 171.640625 167.230469 C 171.34375 167.289062 171.042969 167.320312 170.738281 167.320312 C 170.4375 167.320312 170.136719 167.289062 169.835938 167.230469 C 169.539062 167.171875 169.25 167.085938 168.96875 166.96875 C 168.6875 166.851562 168.421875 166.710938 168.167969 166.539062 C 167.914062 166.371094 167.683594 166.179688 167.46875 165.964844 C 167.253906 165.75 167.058594 165.515625 166.890625 165.265625 C 166.722656 165.011719 166.578125 164.746094 166.464844 164.464844 C 166.347656 164.183594 166.257812 163.894531 166.199219 163.59375 C 166.140625 163.296875 166.113281 162.996094 166.113281 162.691406 C 166.113281 162.386719 166.140625 162.085938 166.199219 161.789062 C 166.257812 161.492188 166.347656 161.203125 166.464844 160.921875 C 166.578125 160.640625 166.722656 160.375 166.890625 160.121094 C 167.058594 159.867188 167.253906 159.632812 167.46875 159.417969 C 167.683594 159.203125 167.914062 159.011719 168.167969 158.84375 C 168.421875 158.675781 168.6875 158.53125 168.96875 158.417969 C 169.25 158.300781 169.539062 158.210938 169.835938 158.152344 C 170.136719 158.09375 170.4375 158.0625 170.738281 158.0625 C 171.042969 158.0625 171.34375 158.09375 171.640625 158.152344 C 171.941406 158.210938 172.230469 158.300781 172.511719 158.417969 C 172.792969 158.53125 173.058594 158.675781 173.3125 158.84375 C 173.5625 159.011719 173.796875 159.203125 174.011719 159.417969 C 174.226562 159.632812 174.417969 159.867188 174.585938 160.121094 C 174.757812 160.375 174.898438 160.640625 175.015625 160.921875 C 175.132812 161.203125 175.21875 161.492188 175.277344 161.789062 C 175.339844 162.085938 175.367188 162.386719 175.367188 162.691406 Z M 175.367188 162.691406 " fill-opacity="1" fill-rule="nonzero"/><path fill="#bec0e9" d="M 315.644531 181.316406 C 315.644531 181.730469 315.566406 182.128906 315.40625 182.511719 C 315.25 182.894531 315.023438 183.230469 314.730469 183.523438 C 314.4375 183.816406 314.101562 184.039062 313.71875 184.199219 C 313.335938 184.355469 312.941406 184.4375 312.527344 184.4375 C 312.113281 184.4375 311.714844 184.355469 311.332031 184.199219 C 310.949219 184.039062 310.613281 183.816406 310.320312 183.523438 C 310.027344 183.230469 309.800781 182.894531 309.644531 182.511719 C 309.484375 182.128906 309.40625 181.730469 309.40625 181.316406 C 309.40625 180.902344 309.484375 180.503906 309.644531 180.125 C 309.800781 179.742188 310.027344 179.402344 310.320312 179.113281 C 310.613281 178.820312 310.949219 178.59375 311.332031 178.433594 C 311.714844 178.277344 312.113281 178.199219 312.527344 178.199219 C 312.941406 178.199219 313.335938 178.277344 313.71875 178.433594 C 314.101562 178.59375 314.4375 178.820312 314.730469 179.113281 C 315.023438 179.402344 315.25 179.742188 315.40625 180.125 C 315.566406 180.503906 315.644531 180.902344 315.644531 181.316406 Z M 315.644531 181.316406 " fill-opacity="1" fill-rule="nonzero"/><path fill="#bec0e9" d="M 295.554688 86.261719 C 294.382812 90.675781 291.0625 93.996094 286.644531 95.167969 L 284.925781 95.617188 L 286.644531 96.074219 C 291.0625 97.25 294.382812 100.570312 295.554688 104.984375 L 296.003906 106.695312 L 296.460938 104.984375 C 297.625 100.570312 300.957031 97.25 305.371094 96.074219 L 307.082031 95.617188 L 305.371094 95.167969 C 300.957031 93.996094 297.625 90.675781 296.460938 86.261719 L 296.003906 84.550781 Z M 295.554688 86.261719 " fill-opacity="1" fill-rule="evenodd"/><path fill="#bec0e9" d="M 167.074219 251.710938 C 187.386719 251.871094 205.261719 262.097656 216.003906 277.625 L 211.0625 280.421875 C 199.011719 272.105469 183.683594 267.0625 166.960938 266.9375 C 150.90625 266.828125 136.074219 271.242188 124.15625 278.800781 L 118.890625 275.355469 C 129.945312 260.867188 147.441406 251.566406 167.074219 251.710938 Z M 167.074219 251.710938 " fill-opacity="1" fill-rule="evenodd"/><path fill="#bec0e9" d="M 95.894531 266.023438 C 110.359375 263.136719 124.179688 271.746094 131.085938 286.355469 C 122.488281 277.984375 110.183594 273.949219 97.269531 276.519531 C 84.367188 279.089844 73.726562 287.722656 67.699219 299 C 70.519531 282.445312 81.417969 268.917969 95.894531 266.023438 Z M 95.894531 266.023438 " fill-opacity="1" fill-rule="evenodd"/><path fill="#bec0e9" d="M 233.21875 268.546875 C 251.117188 268.683594 266.300781 280.019531 272.203125 295.847656 C 263.238281 285.820312 249.09375 279.304688 233.140625 279.191406 C 217.179688 279.070312 202.945312 285.382812 193.847656 295.265625 C 199.960938 279.527344 215.324219 268.425781 233.21875 268.546875 Z M 233.21875 268.546875 " fill-opacity="1" fill-rule="evenodd"/><path fill="#bec0e9" d="M 65.074219 290.382812 C 79.808594 290.492188 91.992188 301.738281 94.640625 316.550781 C 88.761719 306.882812 77.71875 300.332031 64.996094 300.230469 C 52.285156 300.140625 41.140625 306.535156 35.125 316.117188 C 37.984375 301.335938 50.339844 290.269531 65.074219 290.382812 Z M 65.074219 290.382812 " fill-opacity="1" fill-rule="evenodd"/><path fill="#bec0e9" d="M 98.355469 309.128906 C 107.609375 309.195312 115.347656 315.835938 117.46875 324.746094 C 113.132812 319.703125 106.167969 316.40625 98.296875 316.351562 C 90.429688 316.285156 83.417969 319.480469 79.003906 324.46875 C 81.261719 315.578125 89.085938 309.0625 98.355469 309.128906 Z M 98.355469 309.128906 " fill-opacity="1" fill-rule="evenodd"/><path fill="#bec0e9" d="M 196.328125 289.699219 C 205.597656 289.765625 213.320312 296.40625 215.457031 305.316406 C 211.109375 300.265625 204.144531 296.976562 196.273438 296.910156 C 188.402344 296.855469 181.394531 300.050781 176.976562 305.039062 C 179.234375 296.148438 187.074219 289.632812 196.328125 289.699219 Z M 196.328125 289.699219 " fill-opacity="1" fill-rule="evenodd"/><path fill="#bec0e9" d="M 273.554688 288.125 C 288.289062 288.234375 300.484375 299.480469 303.125 314.292969 C 297.253906 304.625 286.199219 298.074219 273.488281 297.972656 C 260.777344 297.882812 249.632812 304.277344 243.605469 313.859375 C 246.46875 299.078125 258.832031 288.011719 273.554688 288.125 Z M 273.554688 288.125 " fill-opacity="1" fill-rule="evenodd"/><g clip-path="url(#8cc97b8efa)"><path fill="#bec0e9" d="M 306.34375 310.402344 C 319.558594 310.503906 330.75 320.957031 335.074219 335.589844 C 328.480469 326.335938 318.046875 320.332031 306.277344 320.242188 C 294.503906 320.152344 283.984375 326.011719 277.253906 335.164062 C 281.792969 320.597656 293.140625 310.304688 306.34375 310.402344 Z M 306.34375 310.402344 " fill-opacity="1" fill-rule="evenodd"/></g></svg>